<svg width="478" height="39" viewBox="0 0 478 39" fill="none" xmlns="http://www.w3.org/2000/svg">
<path d="M449.99 38.0558V0.664062H476.689V6.50859H456.698V16.338H472.04V21.9169H456.698V32.6097H477.353V38.0558H449.99Z" fill="#2A2A29"/>
<path d="M421.198 1.85953V38.0558H414.424V1.85953H421.198ZM403.399 6.50859V0.664062H432.29V6.50859H403.399Z" fill="#2A2A29"/>
<path d="M356.37 38.0558L368.325 0.664062H379.416L391.703 38.0558H384.464L373.97 3.51991L363.543 38.0558H356.37ZM364.406 27.4958L364.473 22.249H383.401L383.467 27.4958H364.406Z" fill="#2A2A29"/>
<path d="M333.209 1.85953V38.0558H326.434V1.85953H333.209ZM315.41 6.50859V0.664062H344.3V6.50859H315.41Z" fill="#2A2A29"/>
<path d="M284.282 38.7864C282.201 38.7864 280.186 38.5429 278.238 38.0558C276.29 37.6131 274.519 36.8604 272.925 35.7977C271.375 34.7351 270.113 33.3847 269.139 31.7464C268.209 30.1082 267.722 28.1157 267.678 25.7691H274.519C274.519 25.9462 274.563 26.3004 274.651 26.8317C274.74 27.3187 274.961 27.8943 275.316 28.5585C275.714 29.2226 276.268 29.8647 276.976 30.4845C277.729 31.1044 278.725 31.6357 279.965 32.0785C281.249 32.477 282.843 32.6762 284.747 32.6762C286.075 32.6762 287.204 32.5434 288.134 32.2777C289.108 32.0121 289.905 31.6579 290.525 31.2151C291.189 30.7723 291.676 30.2853 291.986 29.754C292.296 29.1784 292.451 28.6249 292.451 28.0936C292.451 26.8538 292.008 25.8797 291.122 25.1713C290.281 24.4186 289.13 23.8209 287.669 23.3781C286.252 22.8911 284.68 22.4704 282.953 22.1162C281.271 21.7177 279.566 21.2528 277.839 20.7215C276.157 20.1902 274.607 19.5039 273.19 18.6626C271.773 17.7771 270.667 16.648 269.87 15.2755C269.117 13.9029 268.785 12.154 268.873 10.0287C269.05 7.94767 269.781 6.15447 271.065 4.64906C272.349 3.14365 274.142 1.99245 276.445 1.19547C278.747 0.398489 281.426 0 284.481 0C287.137 0 289.595 0.487045 291.853 1.46113C294.155 2.39094 295.993 3.8078 297.365 5.7117C298.782 7.57132 299.491 9.96226 299.491 12.8845H292.916C292.916 11.5119 292.606 10.405 291.986 9.56377C291.366 8.67824 290.569 8.01409 289.595 7.57132C288.665 7.08428 287.669 6.77434 286.606 6.64151C285.543 6.4644 284.592 6.37585 283.75 6.37585C281.536 6.37585 279.699 6.7522 278.238 7.50491C276.821 8.21333 276.113 9.32025 276.113 10.8257C276.068 12.1097 276.489 13.1281 277.374 13.8808C278.26 14.5892 279.433 15.1648 280.894 15.6075C282.356 16.0503 283.95 16.4709 285.676 16.8694C287.403 17.2236 289.13 17.6443 290.857 18.1313C292.583 18.6184 294.133 19.2825 295.506 20.1238C296.923 20.965 298.03 22.0719 298.827 23.4445C299.668 24.8171 300.022 26.6103 299.889 28.8242C299.801 30.9052 299.07 32.6984 297.697 34.2038C296.325 35.6649 294.487 36.794 292.185 37.5909C289.927 38.3879 287.292 38.7864 284.282 38.7864Z" fill="#2A2A29"/>
<path d="M222.96 0.664062H230.133L226.546 9.36444L220.37 38.0558H209.411L200.379 0.664062H207.618L214.857 35.1999L222.96 0.664062ZM245.474 0.664062H252.647L243.681 38.0558H232.789L226.546 9.36444L222.893 0.664062H230.133L238.235 35.1999L245.474 0.664062Z" fill="#2A2A29"/>
<path d="M166.686 38.9857C160.664 38.9857 156.059 37.2367 152.872 33.7389C149.684 30.1967 148.09 25.437 148.09 19.4596C148.09 15.519 148.776 12.1097 150.149 9.2317C151.521 6.30944 153.58 4.05132 156.325 2.45736C159.115 0.819118 162.568 0 166.686 0C172.752 0 177.357 1.77107 180.5 5.31321C183.688 8.81107 185.282 13.5265 185.282 19.4596C185.282 23.3117 184.574 26.721 183.157 29.6875C181.74 32.6098 179.659 34.8901 176.914 36.5283C174.169 38.1665 170.759 38.9857 166.686 38.9857ZM166.619 32.477C169.32 32.477 171.556 31.9235 173.327 30.8166C175.098 29.6654 176.427 28.1157 177.312 26.1675C178.198 24.1751 178.641 21.9391 178.641 19.4596C178.641 16.9358 178.198 14.6999 177.312 12.7517C176.427 10.7592 175.098 9.20956 173.327 8.10264C171.556 6.95145 169.32 6.37585 166.619 6.37585C162.723 6.37585 159.757 7.57132 157.72 9.96226C155.683 12.3532 154.665 15.519 154.665 19.4596C154.665 21.8948 155.085 24.1087 155.927 26.1011C156.812 28.0493 158.14 29.599 159.912 30.7502C161.683 31.9014 163.919 32.477 166.619 32.477Z" fill="#2A2A29"/>
<path d="M108.121 37.7237V0.664062H114.896V37.7237H108.121ZM108.121 38.0558V32.2776H133.359V38.0558H108.121Z" fill="#2A2A29"/>
<path d="M63.4315 21.0926V37.9999H70.0631V21.1557H85.3157V15.6515H70.0631V6.49987H90.0242V0.664062H63.4315V15.5441H29.2597L16.017 2.30142L0 18.3184L16.017 34.3354L29.2597 21.0926H63.4315Z" fill="#2C2A29"/>
</svg>
